<svg width="3849" height="3724" viewBox="0 0 3849 3724" fill="none" xmlns="http://www.w3.org/2000/svg">
<rect width="3849" height="3724" fill="#F5F5F5"/>
<g id="20943640 1">
<g id="wheel 3">
<path id="path32" d="M2054.89 2049.29C2053.8 2048.88 2053.17 2047.72 2053.48 2046.59C2053.81 2045.37 2055.08 2044.65 2056.32 2044.97C2058.86 2045.63 2061.4 2046.41 2063.87 2047.28C2063.89 2047.28 2063.9 2047.29 2063.92 2047.3C2065.09 2047.74 2065.7 2049.02 2065.27 2050.19C2064.84 2051.37 2063.51 2051.98 2062.3 2051.56C2059.95 2050.73 2057.54 2049.99 2055.13 2049.37C2055.05 2049.35 2054.97 2049.32 2054.89 2049.29V2049.29ZM2080.41 2060.26C2080.27 2060.21 2080.13 2060.14 2080 2060.05C2077.89 2058.74 2075.7 2057.5 2073.49 2056.37C2072.35 2055.78 2071.91 2054.41 2072.5 2053.3C2073.1 2052.19 2074.5 2051.75 2075.64 2052.34C2077.97 2053.53 2080.27 2054.84 2082.49 2056.22C2083.57 2056.89 2083.88 2058.3 2083.2 2059.35C2082.6 2060.28 2081.42 2060.64 2080.41 2060.26V2060.26ZM2034.91 2046.4C2034.01 2046.06 2033.38 2045.19 2033.42 2044.2C2033.46 2042.94 2034.53 2041.96 2035.81 2042C2038.44 2042.09 2041.09 2042.29 2043.7 2042.6C2044.97 2042.75 2045.88 2043.88 2045.73 2045.12C2045.57 2046.37 2044.42 2047.26 2043.15 2047.11C2040.67 2046.82 2038.15 2046.63 2035.66 2046.55C2035.39 2046.54 2035.14 2046.49 2034.91 2046.4ZM2096.13 2072.7C2095.83 2072.59 2095.55 2072.42 2095.31 2072.18C2093.56 2070.44 2091.71 2068.75 2089.81 2067.16C2088.84 2066.35 2088.72 2064.91 2089.55 2063.96C2090.38 2063 2091.85 2062.89 2092.82 2063.7C2094.83 2065.38 2096.78 2067.15 2098.62 2068.98C2099.52 2069.88 2099.51 2071.32 2098.59 2072.2C2097.93 2072.85 2096.96 2073.01 2096.13 2072.7ZM2014.77 2047.95C2014.05 2047.68 2013.48 2047.06 2013.32 2046.26C2013.08 2045.02 2013.9 2043.83 2015.16 2043.59C2017.74 2043.11 2020.37 2042.72 2022.98 2042.45C2024.26 2042.32 2025.4 2043.22 2025.53 2044.47C2025.67 2045.72 2024.74 2046.84 2023.47 2046.97C2020.99 2047.23 2018.49 2047.59 2016.04 2048.06C2015.6 2048.14 2015.16 2048.1 2014.77 2047.95V2047.95ZM1995.47 2053.84C1994.92 2053.63 1994.44 2053.21 1994.18 2052.63C1993.66 2051.48 1994.2 2050.14 1995.37 2049.64C1997.77 2048.6 2000.25 2047.66 2002.74 2046.82C2003.95 2046.42 2005.28 2047.05 2005.69 2048.24C2006.1 2049.43 2005.45 2050.72 2004.24 2051.13C2001.88 2051.92 1999.52 2052.82 1997.24 2053.8C1996.65 2054.05 1996.02 2054.05 1995.47 2053.84V2053.84ZM1977.98 2063.77C1977.58 2063.62 1977.22 2063.36 1976.95 2063C1976.19 2061.99 1976.41 2060.57 1977.43 2059.82C1979.55 2058.29 1981.75 2056.83 1983.99 2055.48C1985.08 2054.82 1986.51 2055.15 1987.18 2056.22C1987.85 2057.29 1987.51 2058.69 1986.42 2059.35C1984.3 2060.63 1982.2 2062.02 1980.2 2063.48C1979.53 2063.95 1978.7 2064.04 1977.98 2063.77V2063.77ZM1963.19 2077.27C1962.95 2077.18 1962.72 2077.05 1962.51 2076.88C1961.54 2076.06 1961.43 2074.62 1962.26 2073.67C1963.97 2071.71 1965.78 2069.81 1967.66 2068C1968.57 2067.12 1970.04 2067.14 1970.94 2068.03C1971.84 2068.93 1971.82 2070.37 1970.91 2071.24C1969.13 2072.96 1967.41 2074.77 1965.78 2076.63C1965.13 2077.38 1964.08 2077.61 1963.19 2077.27V2077.27ZM1951.86 2093.67C1951.77 2093.63 1951.69 2093.6 1951.61 2093.55C1950.47 2092.97 1950.04 2091.59 1950.63 2090.48C1951.86 2088.2 1953.19 2085.95 1954.6 2083.78C1955.29 2082.72 1956.72 2082.42 1957.81 2083.09C1958.89 2083.77 1959.2 2085.17 1958.51 2086.23C1957.17 2088.29 1955.9 2090.43 1954.74 2092.6C1954.19 2093.63 1952.94 2094.07 1951.86 2093.67V2093.67ZM1944.49 2112.11C1943.39 2111.7 1942.77 2110.53 1943.08 2109.4C1943.76 2106.92 1944.55 2104.43 1945.45 2102C1945.89 2100.82 1947.22 2100.21 1948.42 2100.63C1948.44 2100.64 1948.45 2100.65 1948.46 2100.65C1949.64 2101.09 1950.24 2102.38 1949.81 2103.55C1948.96 2105.85 1948.21 2108.22 1947.56 2110.57C1947.23 2111.79 1945.96 2112.51 1944.72 2112.18C1944.64 2112.16 1944.56 2112.14 1944.49 2112.11Z" fill="#91B3FA"/>
<path id="path34" d="M2106.48 2085.04C2106.05 2084.88 2105.67 2084.59 2105.39 2084.2C2104.72 2083.23 2104.01 2082.25 2103.3 2081.31C2102.53 2080.3 2102.75 2078.87 2103.78 2078.13C2104.81 2077.38 2106.26 2077.59 2107.02 2078.6C2107.78 2079.6 2108.52 2080.62 2109.23 2081.64C2109.95 2082.68 2109.67 2084.09 2108.61 2084.8C2107.96 2085.23 2107.16 2085.3 2106.48 2085.04" fill="#91B3FA"/>
<path id="path36" d="M2120.26 2153.03C2119.21 2152.63 2118.58 2151.55 2118.82 2150.44C2119.06 2149.29 2119.29 2148.12 2119.49 2146.96C2119.7 2145.72 2120.9 2144.88 2122.16 2145.09C2123.43 2145.3 2124.28 2146.47 2124.06 2147.71C2123.86 2148.93 2123.62 2150.16 2123.36 2151.37C2123.1 2152.6 2121.87 2153.39 2120.61 2153.13C2120.49 2153.11 2120.37 2153.07 2120.26 2153.03" fill="#91B3FA"/>
<path id="path38" d="M2114.05 2171.55C2114.01 2171.53 2113.96 2171.51 2113.92 2171.49C2112.75 2170.97 2112.24 2169.62 2112.77 2168.48C2113.52 2166.87 2114.22 2165.21 2114.87 2163.56C2115.1 2162.96 2115.33 2162.36 2115.55 2161.76C2115.98 2160.58 2117.31 2159.97 2118.52 2160.39C2119.75 2160.8 2120.35 2162.12 2119.92 2163.3C2119.69 2163.93 2119.45 2164.56 2119.2 2165.19C2118.52 2166.93 2117.78 2168.67 2116.99 2170.36C2116.48 2171.46 2115.19 2171.97 2114.05 2171.55V2171.55ZM2103.9 2188.3C2103.7 2188.22 2103.51 2188.12 2103.33 2187.99C2102.3 2187.23 2102.1 2185.81 2102.87 2184.81C2104.35 2182.89 2105.76 2180.88 2107.07 2178.84C2107.75 2177.78 2109.19 2177.46 2110.27 2178.13C2111.35 2178.8 2111.68 2180.2 2111 2181.27C2109.62 2183.41 2108.13 2185.52 2106.58 2187.54C2105.94 2188.37 2104.84 2188.65 2103.9 2188.3V2188.3ZM2090.22 2202.46C2089.87 2202.33 2089.54 2202.11 2089.28 2201.81C2088.45 2200.85 2088.58 2199.42 2089.55 2198.61C2091.43 2197.05 2093.26 2195.4 2094.99 2193.7C2095.9 2192.81 2097.37 2192.81 2098.27 2193.69C2099.18 2194.58 2099.18 2196.02 2098.28 2196.91C2096.45 2198.7 2094.53 2200.44 2092.55 2202.08C2091.88 2202.63 2090.99 2202.75 2090.22 2202.46ZM2073.71 2213.34C2073.2 2213.15 2072.76 2212.78 2072.49 2212.27C2071.9 2211.16 2072.33 2209.78 2073.47 2209.2C2075.65 2208.08 2077.8 2206.87 2079.88 2205.58C2080.96 2204.91 2082.39 2205.22 2083.08 2206.28C2083.76 2207.34 2083.44 2208.74 2082.36 2209.42C2080.18 2210.77 2077.91 2212.06 2075.62 2213.23C2075.01 2213.54 2074.31 2213.56 2073.71 2213.34V2213.34ZM2055.19 2220.42C2054.52 2220.17 2053.98 2219.62 2053.78 2218.89C2053.44 2217.68 2054.18 2216.43 2055.41 2216.1C2057.79 2215.48 2060.16 2214.75 2062.47 2213.93C2063.68 2213.51 2065 2214.12 2065.44 2215.3C2065.87 2216.48 2065.25 2217.79 2064.04 2218.21C2061.61 2219.07 2059.12 2219.84 2056.62 2220.5C2056.13 2220.62 2055.63 2220.59 2055.19 2220.42ZM2035.54 2223.38C2034.7 2223.06 2034.09 2222.29 2034.05 2221.35C2033.99 2220.1 2034.99 2219.04 2036.27 2218.98C2038.72 2218.88 2041.19 2218.68 2043.64 2218.38C2044.91 2218.22 2046.07 2219.1 2046.23 2220.34C2046.39 2221.59 2045.49 2222.73 2044.22 2222.89C2041.65 2223.2 2039.04 2223.42 2036.46 2223.53C2036.14 2223.54 2035.82 2223.49 2035.54 2223.38V2223.38ZM1969.76 2199.29C1969.49 2199.19 1969.23 2199.03 1969 2198.82C1967.12 2197.08 1965.29 2195.24 1963.57 2193.35C1962.71 2192.41 1962.8 2190.98 1963.75 2190.14C1964.71 2189.3 1966.17 2189.38 1967.03 2190.32C1968.66 2192.11 1970.4 2193.86 1972.18 2195.51C1973.12 2196.37 1973.16 2197.81 1972.28 2198.73C1971.61 2199.42 1970.61 2199.61 1969.76 2199.29ZM2015.71 2222.04C2014.69 2221.66 2014.05 2220.6 2014.26 2219.51C2014.49 2218.27 2015.69 2217.46 2016.95 2217.68C2019.37 2218.11 2021.83 2218.44 2024.28 2218.67C2025.55 2218.79 2026.49 2219.9 2026.37 2221.15C2026.24 2222.4 2025.11 2223.32 2023.84 2223.2C2021.26 2222.96 2018.66 2222.61 2016.12 2222.15C2015.98 2222.13 2015.84 2222.09 2015.71 2222.04V2222.04ZM1985.65 2211.02C1985.53 2210.97 1985.41 2210.92 1985.29 2210.85C1983.07 2209.56 1980.87 2208.15 1978.77 2206.69C1977.73 2205.96 1977.48 2204.54 1978.23 2203.52C1978.97 2202.49 1980.42 2202.25 1981.46 2202.98C1983.46 2204.38 1985.55 2205.71 1987.66 2206.94C1988.76 2207.58 1989.13 2208.97 1988.47 2210.05C1987.89 2211.02 1986.69 2211.41 1985.65 2211.02V2211.02ZM1999.57 2217.61C1998.57 2217.23 1997.57 2216.84 1996.58 2216.43C1995.4 2215.94 1994.85 2214.61 1995.35 2213.45C1995.85 2212.3 1997.22 2211.75 1998.39 2212.24C2000.68 2213.19 2003 2214.04 2005.32 2214.79C2006.53 2215.18 2007.2 2216.46 2006.8 2217.66C2006.4 2218.85 2005.09 2219.5 2003.87 2219.11C2002.44 2218.65 2000.99 2218.14 1999.57 2217.61" fill="#91B3FA"/>
<path id="path40" d="M1956.87 2184.37C1956.43 2184.21 1956.05 2183.92 1955.77 2183.52C1955.07 2182.5 1954.38 2181.44 1953.71 2180.38C1953.04 2179.31 1953.38 2177.91 1954.48 2177.26C1955.57 2176.6 1957 2176.93 1957.67 2178C1958.3 2179.01 1958.96 2180.01 1959.62 2180.98C1960.34 2182.02 1960.05 2183.43 1958.99 2184.14C1958.34 2184.57 1957.55 2184.63 1956.87 2184.37" fill="#91B3FA"/>
<g id="g42">
<g id="g44">
<path id="path56" d="M1969.42 2160.84C1969.56 2161.27 1969.97 2161.57 1970.43 2161.57L1983.63 2161.75C1986.84 2166.9 1990.92 2171.59 1995.78 2175.58L1994.01 2188.39C1993.95 2188.84 1994.18 2189.28 1994.6 2189.48L2008.73 2196.46C2009.15 2196.67 2009.65 2196.59 2009.98 2196.27L2019.43 2187.26C2025.59 2188.72 2031.86 2189.14 2038 2188.61L2046 2198.9C2046.28 2199.26 2046.76 2199.41 2047.2 2199.26L2062.23 2194.4C2062.67 2194.26 2062.97 2193.86 2062.98 2193.41L2063.16 2180.48C2068.41 2177.33 2073.2 2173.33 2077.27 2168.57L2090.34 2170.3C2090.8 2170.37 2091.24 2170.14 2091.45 2169.73L2098.58 2155.88C2098.79 2155.47 2098.71 2154.98 2098.39 2154.66L2089.19 2145.4C2090.68 2139.35 2091.11 2133.21 2090.56 2127.19L2101.06 2119.36C2101.43 2119.09 2101.58 2118.61 2101.44 2118.18L2096.48 2103.45C2096.33 2103.02 2095.93 2102.73 2095.46 2102.72L2082.27 2102.55C2079.05 2097.39 2074.98 2092.7 2070.11 2088.71L2071.89 2075.91C2071.95 2075.46 2071.71 2075.02 2071.3 2074.81L2057.16 2067.83C2056.75 2067.63 2056.25 2067.7 2055.92 2068.02L2046.47 2077.03C2040.3 2075.58 2034.03 2075.15 2027.89 2075.69L2019.9 2065.4C2019.62 2065.04 2019.14 2064.89 2018.7 2065.03L2003.66 2069.89C2003.22 2070.03 2002.93 2070.43 2002.92 2070.88L2002.74 2083.82C1997.48 2086.97 1992.7 2090.96 1988.63 2095.73L1975.56 2093.99C1975.1 2093.93 1974.65 2094.16 1974.44 2094.56L1967.32 2108.42C1967.11 2108.82 1967.19 2109.31 1967.51 2109.64L1976.71 2118.9C1975.22 2124.94 1974.79 2131.08 1975.33 2137.1L1964.83 2144.93C1964.46 2145.21 1964.31 2145.68 1964.46 2146.11L1969.42 2160.84" fill="url(#paint0_linear_0_1)"/>
</g>
</g>
</g>
<g id="wheel rest">
<path id="path62" d="M2235.08 2013.5C2235.51 2013.91 2235.62 2014.56 2235.32 2015.1C2234.76 2016.11 2234.17 2017.11 2233.55 2018.08C2233.15 2018.71 2232.3 2018.9 2231.65 2018.51C2231 2018.12 2230.81 2017.28 2231.21 2016.65C2231.8 2015.73 2232.37 2014.77 2232.9 2013.81C2233.27 2013.16 2234.1 2012.91 2234.77 2013.27C2234.89 2013.33 2234.99 2013.41 2235.08 2013.5Z" fill="#91B3FA"/>
<path id="path64" d="M2136.48 2018.95C2136.54 2019 2136.59 2019.06 2136.64 2019.13C2137.79 2020.74 2139.06 2022.32 2140.39 2023.82C2140.6 2024.04 2140.79 2024.27 2141 2024.49C2141.51 2025.04 2141.46 2025.89 2140.9 2026.39C2140.34 2026.89 2139.45 2026.86 2138.96 2026.3C2138.74 2026.06 2138.53 2025.83 2138.32 2025.59C2136.92 2024.02 2135.6 2022.37 2134.39 2020.68C2133.95 2020.07 2134.1 2019.23 2134.72 2018.8C2135.28 2018.42 2136.02 2018.49 2136.48 2018.95V2018.95ZM2151.75 2033.61C2152.2 2034.05 2152.29 2034.77 2151.92 2035.31C2151.5 2035.93 2150.64 2036.1 2150.01 2035.68C2147.99 2034.36 2146.03 2032.89 2144.19 2031.32C2143.62 2030.83 2143.55 2029.98 2144.05 2029.42C2144.54 2028.86 2145.41 2028.8 2145.99 2029.28C2147.75 2030.78 2149.62 2032.18 2151.54 2033.44C2151.62 2033.49 2151.69 2033.55 2151.75 2033.61V2033.61ZM2164.5 2039.9C2164.87 2040.26 2165.01 2040.8 2164.83 2041.31C2164.57 2042.01 2163.79 2042.38 2163.07 2042.12C2160.78 2041.32 2158.51 2040.37 2156.34 2039.3C2155.66 2038.96 2155.39 2038.16 2155.73 2037.49C2156.07 2036.83 2156.9 2036.56 2157.58 2036.89C2159.65 2037.91 2161.81 2038.82 2164 2039.58C2164.19 2039.65 2164.37 2039.76 2164.5 2039.9ZM2178.45 2042.94C2178.73 2043.22 2178.89 2043.61 2178.85 2044.03C2178.77 2044.77 2178.1 2045.31 2177.34 2045.24C2174.92 2045.01 2172.49 2044.63 2170.11 2044.11C2169.37 2043.95 2168.9 2043.23 2169.07 2042.5C2169.23 2041.78 2169.97 2041.32 2170.71 2041.48C2172.97 2041.97 2175.3 2042.34 2177.61 2042.56C2177.94 2042.59 2178.23 2042.73 2178.45 2042.94V2042.94ZM2192.74 2042.58C2192.94 2042.78 2193.08 2043.03 2193.12 2043.33C2193.24 2044.07 2192.72 2044.76 2191.97 2044.87C2189.55 2045.22 2187.1 2045.43 2184.67 2045.49C2183.91 2045.51 2183.28 2044.92 2183.26 2044.18C2183.24 2043.44 2183.84 2042.82 2184.6 2042.8C2186.91 2042.74 2189.26 2042.54 2191.56 2042.2C2192.01 2042.13 2192.44 2042.29 2192.74 2042.58V2042.58ZM2206.5 2038.8C2206.62 2038.93 2206.73 2039.07 2206.8 2039.24C2207.09 2039.93 2206.76 2040.72 2206.06 2041C2203.81 2041.93 2201.48 2042.72 2199.14 2043.36C2198.4 2043.57 2197.64 2043.15 2197.44 2042.43C2197.23 2041.71 2197.66 2040.97 2198.39 2040.77C2200.63 2040.15 2202.85 2039.4 2205 2038.52C2205.53 2038.3 2206.12 2038.43 2206.5 2038.8V2038.8ZM2218.89 2031.83C2218.94 2031.88 2218.99 2031.93 2219.02 2031.98C2219.48 2032.57 2219.36 2033.42 2218.75 2033.87C2216.8 2035.3 2214.74 2036.63 2212.63 2037.82C2211.98 2038.19 2211.13 2037.96 2210.76 2037.32C2210.38 2036.68 2210.6 2035.85 2211.26 2035.48C2213.27 2034.35 2215.24 2033.08 2217.1 2031.71C2217.65 2031.3 2218.42 2031.37 2218.89 2031.83V2031.83ZM2229.19 2022.12C2229.69 2022.6 2229.74 2023.38 2229.29 2023.93C2228.02 2025.46 2226.66 2026.94 2225.24 2028.34C2224.94 2028.63 2224.64 2028.92 2224.33 2029.21C2223.78 2029.73 2222.9 2029.66 2222.38 2029.18C2221.86 2028.64 2221.87 2027.79 2222.42 2027.27C2222.71 2026.99 2223 2026.71 2223.29 2026.43C2224.64 2025.1 2225.94 2023.69 2227.15 2022.23C2227.63 2021.65 2228.5 2021.56 2229.09 2022.03C2229.13 2022.06 2229.16 2022.09 2229.19 2022.12Z" fill="#91B3FA"/>
<path id="path66" d="M2172.47 1930.53C2172.66 1930.71 2172.79 1930.95 2172.85 1931.22C2173 1931.95 2172.52 1932.66 2171.77 1932.81C2169.53 1933.25 2167.29 1933.84 2165.13 1934.54C2164.41 1934.78 2163.63 1934.4 2163.39 1933.69C2163.15 1932.98 2163.54 1932.22 2164.26 1931.98C2166.53 1931.24 2168.87 1930.63 2171.23 1930.16C2171.7 1930.07 2172.16 1930.22 2172.47 1930.53ZM2186.49 1929.44C2186.75 1929.7 2186.91 1930.06 2186.89 1930.45C2186.86 1931.2 2186.22 1931.78 2185.46 1931.75C2183.17 1931.65 2180.86 1931.69 2178.58 1931.87C2177.83 1931.93 2177.16 1931.37 2177.1 1930.63C2177.04 1929.89 2177.61 1929.24 2178.37 1929.18C2180.75 1929 2183.18 1928.95 2185.57 1929.05C2185.93 1929.07 2186.25 1929.21 2186.49 1929.44ZM2200.36 1931.68C2200.7 1932.01 2200.85 1932.52 2200.71 1933.01C2200.49 1933.73 2199.73 1934.14 2199 1933.93C2196.81 1933.3 2194.55 1932.8 2192.3 1932.44C2191.55 1932.32 2191.04 1931.62 2191.16 1930.89C2191.29 1930.15 2191.99 1929.65 2192.74 1929.77C2195.11 1930.15 2197.47 1930.68 2199.77 1931.34C2200 1931.4 2200.2 1931.52 2200.36 1931.68V1931.68ZM2236.68 1962.2C2236.79 1962.31 2236.88 1962.44 2236.96 1962.59C2237.97 1964.72 2238.86 1966.93 2239.61 1969.16C2239.84 1969.87 2239.45 1970.63 2238.72 1970.86C2238 1971.09 2237.23 1970.71 2236.99 1970C2236.28 1967.87 2235.43 1965.76 2234.46 1963.73C2234.14 1963.06 2234.44 1962.25 2235.13 1961.94C2235.66 1961.69 2236.28 1961.82 2236.68 1962.2ZM2213.27 1937.1C2213.71 1937.53 2213.81 1938.2 2213.49 1938.74C2213.11 1939.38 2212.27 1939.6 2211.61 1939.22C2209.63 1938.1 2207.56 1937.08 2205.47 1936.2C2204.77 1935.9 2204.44 1935.11 2204.74 1934.43C2205.04 1933.74 2205.85 1933.42 2206.55 1933.72C2208.75 1934.64 2210.92 1935.71 2212.99 1936.89C2213.1 1936.95 2213.19 1937.02 2213.27 1937.1V1937.1ZM2229.22 1950.53C2229.25 1950.56 2229.28 1950.6 2229.32 1950.63C2230.82 1952.46 2232.23 1954.39 2233.51 1956.38C2233.91 1957.01 2233.72 1957.84 2233.07 1958.24C2232.43 1958.64 2231.58 1958.44 2231.17 1957.82C2229.96 1955.92 2228.61 1954.07 2227.18 1952.33C2226.7 1951.75 2226.79 1950.9 2227.38 1950.43C2227.93 1950 2228.72 1950.05 2229.22 1950.53V1950.53ZM2224.47 1945.43C2225 1945.95 2225.01 1946.79 2224.48 1947.32C2223.95 1947.86 2223.08 1947.87 2222.54 1947.35C2220.89 1945.79 2219.14 1944.31 2217.33 1942.96C2216.73 1942.51 2216.6 1941.67 2217.06 1941.07C2217.52 1940.48 2218.38 1940.36 2218.99 1940.81C2220.89 1942.23 2222.73 1943.78 2224.45 1945.42C2224.46 1945.42 2224.46 1945.43 2224.47 1945.43Z" fill="#91B3FA"/>
<path id="path68" d="M2241.06 1975.37C2241.24 1975.55 2241.38 1975.79 2241.43 1976.06C2241.66 1977.2 2241.85 1978.34 2242.01 1979.47C2242.11 1980.2 2241.58 1980.88 2240.82 1980.98C2240.07 1981.08 2239.38 1980.56 2239.28 1979.82C2239.13 1978.75 2238.95 1977.66 2238.73 1976.58C2238.59 1975.85 2239.07 1975.14 2239.82 1975C2240.29 1974.91 2240.74 1975.06 2241.06 1975.37" fill="#91B3FA"/>
<g id="g70">
<g id="g72">
<path id="path84" d="M2227.69 1986.92C2227.72 1986.63 2227.56 1986.35 2227.29 1986.23L2219.58 1982.76C2219.07 1978.91 2217.92 1975.11 2216.12 1971.52L2220.57 1964.45C2220.73 1964.21 2220.71 1963.89 2220.52 1963.66L2214.07 1955.95C2213.88 1955.72 2213.57 1955.64 2213.29 1955.74L2205.34 1958.62C2202.1 1956.19 2198.53 1954.34 2194.78 1953.09L2192.83 1945C2192.76 1944.71 2192.51 1944.5 2192.22 1944.47L2182.09 1943.49C2181.8 1943.46 2181.51 1943.62 2181.39 1943.88L2177.84 1951.44C2173.92 1951.94 2170.04 1953.07 2166.38 1954.83L2159.17 1950.47C2158.91 1950.31 2158.59 1950.34 2158.36 1950.52L2150.49 1956.84C2150.26 1957.02 2150.17 1957.33 2150.27 1957.6L2153.22 1965.4C2150.73 1968.57 2148.85 1972.07 2147.57 1975.74L2139.31 1977.66C2139.02 1977.73 2138.81 1977.97 2138.78 1978.25L2137.77 1988.18C2137.74 1988.47 2137.9 1988.74 2138.17 1988.87L2145.88 1992.34C2146.4 1996.19 2147.55 1999.98 2149.34 2003.57L2144.89 2010.64C2144.74 2010.89 2144.76 2011.21 2144.95 2011.43L2151.4 2019.15C2151.58 2019.37 2151.9 2019.46 2152.18 2019.36L2160.13 2016.47C2163.36 2018.91 2166.93 2020.76 2170.68 2022.01L2172.64 2030.1C2172.71 2030.38 2172.95 2030.59 2173.25 2030.62L2183.38 2031.61C2183.67 2031.64 2183.95 2031.48 2184.08 2031.21L2187.62 2023.66C2191.55 2023.15 2195.42 2022.03 2199.08 2020.27L2206.3 2024.63C2206.55 2024.78 2206.88 2024.76 2207.11 2024.58L2214.98 2018.26C2215.21 2018.07 2215.3 2017.77 2215.19 2017.49L2212.25 2009.7C2214.73 2006.53 2216.62 2003.03 2217.9 1999.36L2226.16 1997.44C2226.44 1997.37 2226.66 1997.13 2226.69 1996.84L2227.69 1986.92" fill="url(#paint1_linear_0_1)"/>
</g>
</g>
<path id="path86" d="M2177.32 1992.86C2177.59 1993.12 2177.87 1993.36 2178.18 1993.58C2181.57 1996.04 2186.38 1995.34 2188.89 1992.01C2190.11 1990.4 2190.61 1988.42 2190.31 1986.44C2190.01 1984.46 2188.93 1982.71 2187.29 1981.52C2185.65 1980.32 2183.63 1979.83 2181.6 1980.13C2179.58 1980.42 2177.79 1981.47 2176.58 1983.08C2174.29 1986.11 2174.68 1990.28 2177.32 1992.86ZM2190.1 1980.34C2191.67 1981.87 2192.7 1983.85 2193.03 1986.04C2193.44 1988.74 2192.76 1991.43 2191.1 1993.62C2187.69 1998.14 2181.15 1999.1 2176.54 1995.75C2171.92 1992.39 2170.95 1986 2174.37 1981.48C2176.02 1979.29 2178.45 1977.86 2181.2 1977.46C2183.95 1977.05 2186.69 1977.73 2188.93 1979.35C2189.35 1979.65 2189.74 1979.98 2190.1 1980.34Z" fill="#91B3FA"/>
<path id="path88" d="M2200.8 1969.53C2201.42 1970.13 2202.01 1970.77 2202.58 1971.44C2203.69 1972.78 2204.68 1974.23 2205.49 1975.76C2205.53 1975.83 2205.57 1975.9 2205.6 1975.97C2205.88 1976.5 2205.76 1977.13 2205.35 1977.53C2205.25 1977.63 2205.14 1977.72 2205.01 1977.78C2204.33 1978.12 2203.5 1977.86 2203.15 1977.2C2202.4 1975.77 2201.49 1974.4 2200.45 1973.15C2200.39 1973.09 2200.33 1973.02 2200.27 1972.95C2197.77 1970.01 2194.61 1967.8 2191.08 1966.43C2189.16 1965.69 2187.12 1965.19 2185.02 1964.97C2185 1964.96 2184.98 1964.96 2184.97 1964.96C2184.91 1964.95 2184.86 1964.95 2184.81 1964.94C2178.65 1964.34 2172.62 1966.13 2167.83 1969.97C2167.21 1970.47 2166.62 1971 2166.06 1971.55C2162.31 1975.24 2159.99 1980.04 2159.45 1985.3C2158.84 1991.34 2160.67 1997.24 2164.59 2001.94C2168.51 2006.63 2174.06 2009.54 2180.22 2010.15C2186.38 2010.75 2192.41 2008.96 2197.2 2005.11C2197.81 2004.63 2198.39 2004.11 2198.95 2003.57C2201.34 2001.21 2203.18 1998.37 2204.33 1995.24C2204.4 1995.04 2204.51 1994.87 2204.65 1994.74C2205.01 1994.38 2205.57 1994.24 2206.09 1994.42C2206.8 1994.68 2207.18 1995.45 2206.92 1996.15C2205.64 1999.65 2203.58 2002.83 2200.9 2005.47C2200.28 2006.08 2199.63 2006.65 2198.95 2007.2C2193.59 2011.5 2186.84 2013.5 2179.95 2012.83C2173.06 2012.16 2166.85 2008.9 2162.46 2003.65C2158.07 1998.4 2156.03 1991.79 2156.72 1985.03C2157.31 1979.15 2159.91 1973.78 2164.11 1969.65C2164.73 1969.03 2165.39 1968.44 2166.09 1967.89C2176.46 1959.56 2191.5 1960.45 2200.8 1969.53" fill="#91B3FA"/>
<path id="path90" d="M1862.08 2092.47C1861.45 2092.29 1861 2091.72 1861 2091.04C1861.01 2089.78 1861.05 2088.51 1861.13 2087.25C1861.19 2086.43 1861.91 2085.81 1862.74 2085.86C1863.58 2085.91 1864.21 2086.62 1864.16 2087.44C1864.08 2088.64 1864.03 2089.86 1864.03 2091.06C1864.02 2091.88 1863.34 2092.54 1862.51 2092.54C1862.36 2092.53 1862.22 2092.51 1862.08 2092.47Z" fill="#91B3FA"/>
<path id="path92" d="M2096.61 1926.59C2096.53 1926.57 2096.45 1926.54 2096.37 1926.49C2094.39 1925.52 2092.33 1924.64 2090.24 1923.87C2089.92 1923.75 2089.61 1923.64 2089.3 1923.53C2088.51 1923.25 2088.1 1922.41 2088.38 1921.63C2088.66 1920.86 2089.54 1920.44 2090.31 1920.73C2090.65 1920.85 2090.98 1920.97 2091.31 1921.09C2093.5 1921.9 2095.66 1922.82 2097.73 1923.84C2098.47 1924.21 2098.77 1925.1 2098.4 1925.84C2098.06 1926.49 2097.3 1926.79 2096.61 1926.59V1926.59ZM2074.03 1920.17C2073.35 1919.98 2072.89 1919.33 2072.96 1918.61C2073.04 1917.79 2073.78 1917.2 2074.61 1917.28C2077.27 1917.53 2079.95 1917.95 2082.57 1918.53C2083.39 1918.72 2083.9 1919.5 2083.72 1920.3C2083.54 1921.1 2082.73 1921.6 2081.91 1921.42C2079.41 1920.87 2076.85 1920.47 2074.32 1920.23C2074.22 1920.22 2074.12 1920.2 2074.03 1920.17V1920.17ZM2058.32 1920.59C2057.78 1920.43 2057.35 1919.98 2057.26 1919.39C2057.13 1918.58 2057.7 1917.83 2058.53 1917.7C2061.18 1917.31 2063.88 1917.07 2066.55 1917C2067.39 1916.98 2068.08 1917.63 2068.11 1918.44C2068.13 1919.26 2067.47 1919.95 2066.63 1919.97C2064.08 1920.03 2061.51 1920.26 2058.98 1920.63C2058.75 1920.67 2058.53 1920.65 2058.32 1920.59V1920.59ZM2043.19 1924.76C2042.77 1924.63 2042.41 1924.33 2042.23 1923.91C2041.9 1923.15 2042.27 1922.28 2043.04 1921.97C2045.51 1920.95 2048.07 1920.08 2050.65 1919.37C2051.46 1919.14 2052.29 1919.6 2052.52 1920.39C2052.74 1921.18 2052.27 1922 2051.47 1922.22C2049.01 1922.9 2046.57 1923.74 2044.21 1924.7C2043.87 1924.84 2043.52 1924.85 2043.19 1924.76ZM2029.54 1932.4C2029.24 1932.32 2028.96 1932.13 2028.76 1931.87C2028.26 1931.21 2028.4 1930.28 2029.07 1929.79C2031.22 1928.22 2033.48 1926.76 2035.81 1925.46C2036.54 1925.05 2037.46 1925.3 2037.87 1926.01C2038.29 1926.72 2038.04 1927.63 2037.31 1928.04C2035.09 1929.28 2032.93 1930.67 2030.88 1932.17C2030.48 1932.46 2029.98 1932.53 2029.54 1932.4ZM2018.2 1943.09C2018.02 1943.03 2017.84 1942.94 2017.69 1942.82C2017.04 1942.3 2016.94 1941.37 2017.46 1940.73C2019.15 1938.69 2020.98 1936.73 2022.92 1934.91C2023.52 1934.34 2024.48 1934.36 2025.06 1934.95C2025.64 1935.54 2025.62 1936.48 2025.02 1937.05C2023.17 1938.79 2021.42 1940.65 2019.82 1942.6C2019.42 1943.08 2018.78 1943.25 2018.2 1943.09V1943.09ZM2009.9 1956.17C2009.83 1956.15 2009.76 1956.13 2009.7 1956.1C2008.94 1955.75 2008.61 1954.87 2008.96 1954.12C2010.08 1951.74 2011.37 1949.4 2012.78 1947.17C2013.22 1946.48 2014.16 1946.27 2014.87 1946.7C2015.58 1947.13 2015.8 1948.04 2015.36 1948.74C2014.01 1950.86 2012.78 1953.1 2011.71 1955.37C2011.39 1956.05 2010.61 1956.38 2009.9 1956.17ZM2005.08 1970.84C2004.34 1970.62 2003.88 1969.89 2004.03 1969.14C2004.44 1967.01 2004.97 1964.87 2005.61 1962.8C2005.74 1962.36 2005.88 1961.92 2006.02 1961.48C2006.28 1960.7 2007.17 1960.32 2007.93 1960.52C2008.73 1960.78 2009.16 1961.61 2008.91 1962.39C2008.77 1962.81 2008.64 1963.23 2008.51 1963.65C2007.91 1965.63 2007.4 1967.66 2007 1969.69C2006.84 1970.5 2006.05 1971.03 2005.23 1970.88C2005.18 1970.87 2005.13 1970.85 2005.08 1970.84" fill="#91B3FA"/>
<path id="path94" d="M2104.06 2024.1C2103.79 2024.02 2103.53 2023.86 2103.33 2023.63C2102.8 2023 2102.89 2022.06 2103.53 2021.54C2105.47 2019.96 2107.32 2018.26 2109.05 2016.47C2109.62 2015.87 2110.58 2015.84 2111.19 2016.4C2111.79 2016.97 2111.82 2017.9 2111.25 2018.5C2109.44 2020.38 2107.5 2022.17 2105.47 2023.82C2105.06 2024.15 2104.53 2024.24 2104.06 2024.1ZM2091.06 2032.31C2090.66 2032.2 2090.32 2031.93 2090.13 2031.54C2089.76 2030.8 2090.08 2029.91 2090.83 2029.55C2093.1 2028.48 2095.32 2027.25 2097.43 2025.92C2098.13 2025.48 2099.07 2025.68 2099.52 2026.37C2099.97 2027.06 2099.77 2027.98 2099.07 2028.42C2096.85 2029.81 2094.53 2031.1 2092.15 2032.22C2091.8 2032.39 2091.41 2032.41 2091.06 2032.31V2032.31ZM2076.43 2037.23C2075.92 2037.08 2075.5 2036.66 2075.38 2036.11C2075.21 2035.31 2075.73 2034.52 2076.55 2034.35C2079.01 2033.84 2081.46 2033.17 2083.84 2032.37C2084.63 2032.11 2085.49 2032.52 2085.76 2033.3C2086.03 2034.07 2085.61 2034.92 2084.82 2035.18C2082.33 2036.02 2079.76 2036.72 2077.18 2037.26C2076.92 2037.31 2076.67 2037.29 2076.43 2037.23V2037.23ZM2025 2026.18C2024.84 2026.13 2024.68 2026.06 2024.53 2025.95C2022.41 2024.4 2020.37 2022.72 2018.47 2020.93C2017.86 2020.37 2017.84 2019.43 2018.42 2018.83C2019 2018.24 2019.96 2018.22 2020.56 2018.79C2022.38 2020.49 2024.32 2022.1 2026.34 2023.57C2027.01 2024.06 2027.15 2024.99 2026.65 2025.65C2026.26 2026.16 2025.59 2026.35 2025 2026.18V2026.18ZM2061.03 2038.56C2060.39 2038.37 2059.93 2037.78 2059.95 2037.09C2059.98 2036.27 2060.68 2035.63 2061.51 2035.65C2064.03 2035.74 2066.58 2035.67 2069.08 2035.45C2069.91 2035.38 2070.64 2035.98 2070.72 2036.8C2070.79 2037.62 2070.17 2038.34 2069.34 2038.41C2066.72 2038.64 2064.05 2038.71 2061.41 2038.62C2061.28 2038.62 2061.15 2038.59 2061.03 2038.56ZM2038.44 2033.69C2038.39 2033.67 2038.34 2033.66 2038.29 2033.63C2035.86 2032.64 2033.46 2031.48 2031.17 2030.2C2030.45 2029.8 2030.19 2028.89 2030.61 2028.18C2031.02 2027.47 2031.95 2027.22 2032.67 2027.62C2034.86 2028.84 2037.14 2029.94 2039.46 2030.9C2040.23 2031.21 2040.59 2032.09 2040.27 2032.84C2039.97 2033.55 2039.17 2033.9 2038.44 2033.69V2033.69ZM2045.75 2036.2C2044.96 2035.97 2044.5 2035.16 2044.73 2034.38C2044.96 2033.59 2045.8 2033.13 2046.6 2033.35C2049.02 2034.03 2051.51 2034.57 2053.99 2034.95C2054.81 2035.08 2055.38 2035.84 2055.25 2036.65C2055.12 2037.46 2054.34 2038.01 2053.52 2037.88C2050.92 2037.48 2048.31 2036.92 2045.77 2036.21C2045.77 2036.21 2045.76 2036.21 2045.75 2036.2" fill="#91B3FA"/>
<path id="path96" d="M1876.56 2132.48C1876.28 2132.4 1876.02 2132.23 1875.83 2131.99C1875 2131.01 1874.21 2130 1873.46 2128.99C1872.97 2128.32 1873.12 2127.4 1873.8 2126.91C1874.48 2126.44 1875.43 2126.59 1875.92 2127.25C1876.63 2128.21 1877.39 2129.18 1878.17 2130.12C1878.7 2130.75 1878.6 2131.69 1877.96 2132.2C1877.55 2132.53 1877.03 2132.61 1876.56 2132.48Z" fill="#91B3FA"/>
<g id="g98">
<g id="g100">
<path id="path112" d="M2021.39 2004.24C2021.52 2004.53 2021.82 2004.72 2022.15 2004.7L2031.46 2004.13C2034.01 2007.6 2037.14 2010.69 2040.79 2013.25L2040.24 2022.37C2040.22 2022.69 2040.41 2022.99 2040.71 2023.11L2051.06 2027.3C2051.36 2027.42 2051.71 2027.34 2051.93 2027.1L2058.1 2020.25C2062.53 2020.95 2066.97 2020.93 2071.27 2020.23L2077.47 2027.07C2077.69 2027.31 2078.03 2027.38 2078.34 2027.26L2088.67 2023.05C2088.98 2022.93 2089.17 2022.63 2089.15 2022.31L2088.57 2013.18C2092.1 2010.68 2095.26 2007.62 2097.87 2004.04L2107.18 2004.59C2107.51 2004.6 2107.81 2004.42 2107.94 2004.12L2112.21 1993.98C2112.33 1993.68 2112.25 1993.34 2112.01 1993.13L2105.01 1987.08C2105.73 1982.74 2105.7 1978.38 2104.99 1974.17L2111.97 1968.1C2112.22 1967.89 2112.29 1967.54 2112.17 1967.25L2107.87 1957.12C2107.75 1956.82 2107.44 1956.64 2107.12 1956.66L2097.8 1957.22C2095.25 1953.76 2092.12 1950.66 2088.48 1948.1L2089.03 1938.98C2089.05 1938.66 2088.86 1938.36 2088.55 1938.24L2078.21 1934.06C2077.9 1933.93 2077.56 1934.01 2077.34 1934.25L2071.17 1941.11C2066.74 1940.4 2062.29 1940.43 2057.99 1941.13L2051.8 1934.29C2051.58 1934.05 2051.23 1933.97 2050.93 1934.09L2040.59 1938.31C2040.29 1938.43 2040.1 1938.73 2040.12 1939.05L2040.7 1948.18C2037.16 1950.67 2034 1953.74 2031.39 1957.31L2022.08 1956.77C2021.76 1956.75 2021.45 1956.94 2021.33 1957.23L2017.06 1967.38C2016.93 1967.67 2017.01 1968.01 2017.26 1968.22L2024.25 1974.28C2023.53 1978.61 2023.56 1982.97 2024.27 1987.18L2017.29 1993.26C2017.05 1993.47 2016.97 1993.81 2017.1 1994.11L2021.39 2004.24" fill="url(#paint2_linear_0_1)"/>
</g>
</g>
</g>
<g id="wheel1">
<path id="path114" d="M2035.74 2127.17C2035.35 2127.06 2034.95 2126.97 2034.53 2126.91C2029.93 2126.26 2025.65 2129.39 2024.98 2133.9C2024.66 2136.08 2025.22 2138.25 2026.57 2140.02C2027.92 2141.79 2029.89 2142.93 2032.11 2143.25C2034.34 2143.57 2036.56 2143.02 2038.36 2141.7C2040.17 2140.38 2041.34 2138.45 2041.66 2136.26C2042.27 2132.17 2039.67 2128.32 2035.74 2127.17V2127.17ZM2030.02 2145.83C2027.68 2145.15 2025.63 2143.75 2024.14 2141.8C2022.31 2139.39 2021.55 2136.44 2021.99 2133.47C2022.89 2127.34 2028.71 2123.08 2034.97 2123.97C2041.22 2124.87 2045.57 2130.57 2044.66 2136.69C2044.22 2139.66 2042.63 2142.28 2040.18 2144.08C2037.72 2145.87 2034.71 2146.62 2031.68 2146.19C2031.11 2146.11 2030.56 2145.99 2030.02 2145.83" fill="#91B3FA"/>
<path id="path116" d="M2025.39 2161.77C2024.47 2161.5 2023.56 2161.18 2022.65 2160.82C2020.86 2160.09 2019.13 2159.19 2017.53 2158.12C2017.46 2158.08 2017.39 2158.03 2017.32 2157.98C2016.76 2157.6 2016.54 2156.93 2016.72 2156.33C2016.77 2156.19 2016.84 2156.05 2016.93 2155.91C2017.4 2155.24 2018.35 2155.07 2019.03 2155.54C2020.52 2156.54 2022.13 2157.39 2023.81 2158.07H2023.81C2023.9 2158.11 2023.99 2158.15 2024.08 2158.18C2028.07 2159.75 2032.3 2160.28 2036.46 2159.81C2038.72 2159.55 2040.95 2158.99 2043.11 2158.13C2043.13 2158.13 2043.15 2158.12 2043.16 2158.11C2043.22 2158.09 2043.27 2158.07 2043.32 2158.05C2049.61 2155.48 2054.51 2150.67 2057.1 2144.5C2057.44 2143.71 2057.73 2142.9 2057.98 2142.08C2059.66 2136.59 2059.35 2130.74 2057.08 2125.38C2054.46 2119.22 2049.56 2114.42 2043.26 2111.88C2036.97 2109.33 2030.03 2109.34 2023.74 2111.9C2017.45 2114.46 2012.56 2119.27 2009.96 2125.44C2009.63 2126.23 2009.34 2127.03 2009.1 2127.83C2008.03 2131.34 2007.75 2135.03 2008.31 2138.65C2008.34 2138.88 2008.32 2139.1 2008.26 2139.3C2008.1 2139.83 2007.63 2140.25 2007.03 2140.34C2006.21 2140.46 2005.44 2139.91 2005.31 2139.09C2004.69 2135.04 2005 2130.91 2006.19 2126.99C2006.47 2126.08 2006.79 2125.19 2007.16 2124.31C2010.07 2117.41 2015.54 2112.03 2022.58 2109.16C2029.62 2106.29 2037.37 2106.28 2044.42 2109.13C2051.46 2111.98 2056.95 2117.34 2059.87 2124.24C2062.42 2130.24 2062.76 2136.78 2060.89 2142.93C2060.61 2143.84 2060.28 2144.74 2059.91 2145.64C2054.28 2159 2039.23 2165.82 2025.39 2161.77" fill="#91B3FA"/>
<path id="path118" d="M2204.74 2123.65C2203.61 2123.75 2202.55 2122.99 2202.33 2121.87C2202.08 2120.67 2202.88 2119.51 2204.11 2119.27C2206.61 2118.78 2209.18 2118.39 2211.73 2118.12C2211.74 2118.12 2211.76 2118.12 2211.77 2118.11C2213 2118.01 2214.09 2118.88 2214.22 2120.08C2214.36 2121.3 2213.46 2122.39 2212.22 2122.52C2209.8 2122.79 2207.37 2123.15 2204.98 2123.62C2204.9 2123.63 2204.82 2123.64 2204.74 2123.65ZM2231.88 2122.54C2231.73 2122.55 2231.58 2122.55 2231.43 2122.54C2229.01 2122.27 2226.55 2122.1 2224.12 2122.04C2222.87 2122.01 2221.88 2120.99 2221.92 2119.76C2221.95 2118.54 2222.99 2117.57 2224.24 2117.61C2226.8 2117.68 2229.39 2117.85 2231.93 2118.13C2233.17 2118.27 2234.07 2119.37 2233.93 2120.58C2233.81 2121.65 2232.93 2122.45 2231.88 2122.54V2122.54ZM2185.98 2129.5C2185.04 2129.59 2184.12 2129.09 2183.71 2128.2C2183.2 2127.08 2183.71 2125.77 2184.85 2125.27C2187.19 2124.25 2189.6 2123.31 2192.02 2122.48C2193.2 2122.09 2194.49 2122.69 2194.9 2123.85C2195.31 2125 2194.68 2126.27 2193.5 2126.67C2191.21 2127.45 2188.92 2128.34 2186.7 2129.32C2186.47 2129.42 2186.22 2129.48 2185.98 2129.5ZM2251.09 2126.84C2250.78 2126.87 2250.46 2126.83 2250.14 2126.72C2247.85 2125.93 2245.49 2125.23 2243.13 2124.64C2241.92 2124.34 2241.19 2123.13 2241.5 2121.94C2241.81 2120.76 2243.05 2120.04 2244.26 2120.35C2246.74 2120.97 2249.23 2121.71 2251.64 2122.54C2252.82 2122.95 2253.44 2124.21 2253.03 2125.37C2252.72 2126.21 2251.95 2126.77 2251.09 2126.84V2126.84ZM2169.02 2139.31C2168.27 2139.38 2167.5 2139.08 2167.01 2138.44C2166.26 2137.46 2166.46 2136.07 2167.46 2135.34C2169.51 2133.83 2171.64 2132.39 2173.81 2131.05C2174.87 2130.4 2176.27 2130.72 2176.93 2131.75C2177.59 2132.79 2177.27 2134.16 2176.22 2134.81C2174.16 2136.08 2172.12 2137.44 2170.18 2138.88C2169.83 2139.14 2169.43 2139.28 2169.02 2139.31V2139.31ZM2154.7 2152.57C2154.12 2152.62 2153.52 2152.45 2153.04 2152.06C2152.09 2151.26 2151.97 2149.87 2152.78 2148.93C2154.43 2147.02 2156.18 2145.15 2158 2143.38C2158.89 2142.51 2160.32 2142.51 2161.2 2143.38C2162.08 2144.25 2162.08 2145.65 2161.19 2146.52C2159.47 2148.2 2157.8 2149.98 2156.23 2151.8C2155.83 2152.26 2155.27 2152.52 2154.7 2152.57V2152.57ZM2143.73 2168.61C2143.31 2168.64 2142.88 2168.57 2142.49 2168.37C2141.38 2167.8 2140.94 2166.47 2141.52 2165.38C2142.7 2163.15 2143.99 2160.95 2145.36 2158.83C2146.03 2157.79 2147.43 2157.49 2148.48 2158.14C2149.54 2158.79 2149.85 2160.16 2149.18 2161.2C2147.88 2163.21 2146.65 2165.3 2145.53 2167.42C2145.16 2168.12 2144.47 2168.54 2143.73 2168.61V2168.61ZM2136.67 2186.64C2136.42 2186.66 2136.16 2186.64 2135.91 2186.58C2134.7 2186.27 2133.97 2185.06 2134.28 2183.88C2134.93 2181.45 2135.68 2179.02 2136.53 2176.65C2136.95 2175.49 2138.24 2174.89 2139.42 2175.3C2140.6 2175.7 2141.22 2176.97 2140.8 2178.12C2139.99 2180.37 2139.27 2182.68 2138.66 2184.99C2138.42 2185.92 2137.6 2186.56 2136.67 2186.64V2186.64ZM2133.92 2205.75C2133.83 2205.76 2133.74 2205.76 2133.65 2205.76C2132.4 2205.72 2131.42 2204.7 2131.45 2203.48C2131.53 2200.97 2131.71 2198.43 2132 2195.95C2132.14 2194.73 2133.26 2193.86 2134.5 2194C2135.74 2194.13 2136.64 2195.23 2136.49 2196.45C2136.22 2198.81 2136.04 2201.22 2135.97 2203.61C2135.94 2204.74 2135.04 2205.65 2133.92 2205.75ZM2135.52 2224.99C2134.38 2225.09 2133.33 2224.34 2133.11 2223.21C2132.61 2220.76 2132.22 2218.24 2131.95 2215.74C2131.81 2214.52 2132.71 2213.43 2133.95 2213.3C2133.97 2213.3 2133.98 2213.29 2134 2213.29C2135.22 2213.19 2136.31 2214.06 2136.45 2215.26C2136.71 2217.64 2137.08 2220.03 2137.54 2222.36C2137.78 2223.56 2136.99 2224.73 2135.76 2224.96C2135.68 2224.98 2135.6 2224.99 2135.52 2224.99" fill="#91B3FA"/>
<path id="path120" d="M2265.54 2133.3C2265.1 2133.34 2264.63 2133.25 2264.22 2133.02C2263.21 2132.45 2262.16 2131.9 2261.12 2131.37C2260.01 2130.8 2259.58 2129.47 2260.15 2128.38C2260.73 2127.29 2262.1 2126.87 2263.2 2127.43C2264.3 2127.99 2265.39 2128.57 2266.46 2129.17C2267.54 2129.77 2267.92 2131.13 2267.3 2132.19C2266.92 2132.85 2266.25 2133.24 2265.54 2133.3" fill="#91B3FA"/>
<path id="path122" d="M2307.32 2187.05C2306.23 2187.15 2305.21 2186.46 2304.93 2185.39C2304.64 2184.28 2304.33 2183.16 2303.99 2182.06C2303.64 2180.88 2304.32 2179.65 2305.52 2179.3C2306.72 2178.95 2307.97 2179.62 2308.33 2180.79C2308.68 2181.95 2309.01 2183.13 2309.31 2184.3C2309.62 2185.49 2308.89 2186.69 2307.68 2186.99C2307.56 2187.02 2307.44 2187.04 2307.32 2187.05" fill="#91B3FA"/>
<path id="path124" d="M2309.98 2205.87C2309.94 2205.88 2309.89 2205.88 2309.84 2205.88C2308.59 2205.91 2307.55 2204.95 2307.52 2203.73C2307.47 2202 2307.36 2200.25 2307.21 2198.54C2307.15 2197.91 2307.09 2197.29 2307.02 2196.68C2306.88 2195.46 2307.77 2194.36 2309.01 2194.23C2310.27 2194.07 2311.37 2194.97 2311.51 2196.19C2311.59 2196.84 2311.65 2197.49 2311.71 2198.14C2311.88 2199.95 2311.99 2201.79 2312.04 2203.6C2312.07 2204.78 2311.16 2205.77 2309.98 2205.87V2205.87ZM2308.41 2224.8C2308.2 2224.82 2307.99 2224.81 2307.78 2224.77C2306.55 2224.54 2305.75 2223.38 2305.99 2222.17C2306.44 2219.87 2306.8 2217.53 2307.06 2215.19C2307.19 2213.98 2308.31 2213.1 2309.55 2213.23C2310.79 2213.36 2311.69 2214.45 2311.55 2215.67C2311.29 2218.12 2310.91 2220.6 2310.43 2223.02C2310.23 2224.01 2309.39 2224.72 2308.41 2224.8ZM2302.63 2242.95C2302.26 2242.98 2301.88 2242.92 2301.52 2242.77C2300.38 2242.28 2299.86 2240.97 2300.36 2239.85C2301.32 2237.7 2302.2 2235.48 2302.97 2233.27C2303.38 2232.11 2304.66 2231.49 2305.84 2231.89C2307.03 2232.28 2307.66 2233.54 2307.25 2234.7C2306.44 2237.04 2305.51 2239.37 2304.5 2241.63C2304.16 2242.4 2303.42 2242.88 2302.63 2242.95ZM2292.93 2259.4C2292.4 2259.44 2291.85 2259.31 2291.39 2258.98C2290.38 2258.25 2290.16 2256.86 2290.9 2255.88C2292.32 2253.98 2293.68 2252.01 2294.93 2250.02C2295.58 2248.97 2296.97 2248.65 2298.04 2249.29C2299.1 2249.93 2299.44 2251.29 2298.78 2252.34C2297.47 2254.44 2296.04 2256.51 2294.55 2258.5C2294.15 2259.04 2293.55 2259.34 2292.93 2259.4V2259.4ZM2279.8 2273.38C2279.1 2273.44 2278.39 2273.18 2277.89 2272.63C2277.07 2271.7 2277.17 2270.3 2278.11 2269.5C2279.91 2267.96 2281.68 2266.32 2283.34 2264.64C2284.21 2263.76 2285.64 2263.74 2286.54 2264.59C2287.44 2265.44 2287.46 2266.85 2286.59 2267.72C2284.83 2269.49 2282.98 2271.22 2281.08 2272.84C2280.71 2273.16 2280.26 2273.34 2279.8 2273.38V2273.38ZM2263.88 2284.21C2263.01 2284.29 2262.14 2283.86 2261.7 2283.06C2261.1 2281.99 2261.51 2280.64 2262.6 2280.06C2264.7 2278.94 2266.78 2277.72 2268.79 2276.43C2269.83 2275.76 2271.23 2276.05 2271.92 2277.07C2272.61 2278.09 2272.32 2279.47 2271.27 2280.14C2269.16 2281.5 2266.97 2282.78 2264.76 2283.95C2264.48 2284.1 2264.18 2284.19 2263.88 2284.21V2284.21ZM2195.76 2290.73C2195.47 2290.75 2195.18 2290.72 2194.89 2290.63C2192.48 2289.9 2190.07 2289.06 2187.74 2288.13C2186.58 2287.67 2186.03 2286.37 2186.5 2285.24C2186.97 2284.11 2188.29 2283.56 2189.44 2284.02C2191.66 2284.9 2193.94 2285.71 2196.23 2286.4C2197.42 2286.77 2198.09 2288.01 2197.72 2289.18C2197.44 2290.06 2196.64 2290.65 2195.76 2290.73ZM2245.93 2291.36C2244.87 2291.46 2243.86 2290.8 2243.56 2289.76C2243.22 2288.58 2243.92 2287.36 2245.12 2287.02C2247.42 2286.39 2249.72 2285.65 2251.97 2284.82C2253.14 2284.39 2254.44 2284.97 2254.88 2286.11C2255.32 2287.26 2254.73 2288.54 2253.56 2288.97C2251.2 2289.84 2248.77 2290.62 2246.35 2291.29C2246.21 2291.33 2246.07 2291.35 2245.93 2291.36ZM2214.8 2294.33C2214.67 2294.34 2214.54 2294.34 2214.41 2294.33C2211.9 2294.13 2209.36 2293.83 2206.88 2293.42C2205.65 2293.22 2204.81 2292.08 2205.02 2290.88C2205.22 2289.67 2206.39 2288.85 2207.62 2289.05C2209.98 2289.43 2212.39 2289.72 2214.78 2289.91C2216.02 2290.01 2216.95 2291.08 2216.85 2292.3C2216.76 2293.39 2215.88 2294.23 2214.8 2294.33V2294.33ZM2229.86 2294.26C2228.83 2294.35 2227.78 2294.42 2226.74 2294.48C2225.49 2294.55 2224.42 2293.61 2224.35 2292.39C2224.29 2291.17 2225.25 2290.12 2226.49 2290.05C2228.9 2289.92 2231.31 2289.7 2233.67 2289.38C2234.9 2289.21 2236.04 2290.05 2236.22 2291.27C2236.39 2292.48 2235.52 2293.6 2234.29 2293.77C2232.83 2293.96 2231.34 2294.13 2229.86 2294.26" fill="#91B3FA"/>
<path id="path126" d="M2177.95 2283.08C2177.5 2283.12 2177.03 2283.03 2176.62 2282.79C2175.56 2282.19 2174.49 2281.56 2173.44 2280.91C2172.39 2280.25 2172.07 2278.88 2172.74 2277.85C2173.41 2276.82 2174.81 2276.51 2175.86 2277.16C2176.86 2277.78 2177.87 2278.38 2178.88 2278.95C2179.96 2279.56 2180.33 2280.92 2179.7 2281.98C2179.32 2282.63 2178.65 2283.02 2177.95 2283.08" fill="#91B3FA"/>
<g id="g128">
<g id="g130">
<path id="path142" d="M2178.65 2257.21C2178.97 2257.52 2179.45 2257.61 2179.86 2257.42L2191.49 2252.04C2196.56 2255.2 2202.18 2257.59 2208.18 2259.05L2212.23 2271C2212.37 2271.42 2212.77 2271.71 2213.22 2271.71L2228.65 2271.9C2229.1 2271.9 2229.5 2271.63 2229.66 2271.21L2233.99 2259.35C2240.03 2258.04 2245.7 2255.77 2250.85 2252.73L2262.34 2258.39C2262.75 2258.59 2263.23 2258.51 2263.56 2258.2L2274.6 2247.64C2274.92 2247.33 2275.01 2246.85 2274.81 2246.45L2269.32 2235.06C2272.55 2230.09 2274.99 2224.58 2276.47 2218.7L2288.68 2214.74C2289.1 2214.6 2289.39 2214.21 2289.4 2213.77L2289.58 2198.65C2289.59 2198.2 2289.31 2197.81 2288.88 2197.66L2276.78 2193.41C2275.44 2187.49 2273.13 2181.93 2270.03 2176.89L2275.8 2165.63C2276 2165.23 2275.93 2164.75 2275.61 2164.44L2264.83 2153.62C2264.52 2153.3 2264.03 2153.22 2263.62 2153.4L2251.99 2158.79C2246.92 2155.63 2241.31 2153.23 2235.3 2151.78L2231.26 2139.82C2231.12 2139.4 2230.72 2139.12 2230.27 2139.11L2214.84 2138.93C2214.39 2138.93 2213.98 2139.2 2213.83 2139.62L2209.49 2151.48C2203.46 2152.79 2197.78 2155.05 2192.64 2158.1L2181.14 2152.44C2180.74 2152.24 2180.25 2152.31 2179.93 2152.62L2168.89 2163.19C2168.56 2163.5 2168.48 2163.97 2168.67 2164.37L2174.17 2175.77C2170.94 2180.74 2168.49 2186.24 2167.01 2192.12L2154.81 2196.09C2154.38 2196.23 2154.09 2196.62 2154.08 2197.06L2153.9 2212.18C2153.9 2212.62 2154.18 2213.02 2154.6 2213.17L2166.7 2217.42C2168.04 2223.33 2170.35 2228.89 2173.46 2233.93L2167.69 2245.2C2167.48 2245.59 2167.56 2246.07 2167.87 2246.39L2178.65 2257.21" fill="url(#paint3_linear_0_1)"/>
</g>
</g>
<path id="path144" d="M2220.71 2193.8C2220.13 2193.85 2219.55 2193.94 2218.97 2194.08C2212.59 2195.58 2208.65 2201.88 2210.18 2208.13C2211.71 2214.38 2218.14 2218.25 2224.51 2216.75C2230.89 2215.25 2234.84 2208.94 2233.31 2202.7C2232.57 2199.67 2230.67 2197.1 2227.96 2195.48C2225.76 2194.16 2223.24 2193.58 2220.71 2193.8V2193.8ZM2223.11 2220.56C2215.58 2221.21 2208.47 2216.37 2206.66 2208.96C2204.66 2200.81 2209.81 2192.59 2218.13 2190.63C2222.15 2189.68 2226.32 2190.33 2229.85 2192.45C2233.38 2194.58 2235.86 2197.92 2236.83 2201.87C2238.82 2210.02 2233.68 2218.24 2225.36 2220.19C2224.61 2220.37 2223.86 2220.49 2223.11 2220.56Z" fill="#91B3FA"/>
<path id="path146" d="M2225.42 2242.4C2224.12 2242.51 2222.82 2242.56 2221.5 2242.54C2221.09 2242.54 2220.67 2242.53 2220.26 2242.51C2218.22 2242.42 2216.19 2242.17 2214.2 2241.77C2214.17 2241.77 2214.14 2241.76 2214.12 2241.75C2214.04 2241.74 2213.96 2241.72 2213.88 2241.71C2213.74 2241.68 2213.59 2241.64 2213.44 2241.61C2213.05 2241.52 2212.77 2241.2 2212.74 2240.82C2212.73 2240.73 2212.74 2240.64 2212.76 2240.55C2212.87 2240.07 2213.35 2239.77 2213.84 2239.88C2216.35 2240.44 2218.93 2240.74 2221.52 2240.77C2234.4 2240.92 2245.81 2234.46 2252.38 2224.61C2256.04 2219.14 2258.2 2212.61 2258.29 2205.6C2258.3 2204.37 2258.25 2203.14 2258.14 2201.93C2257.4 2193.8 2253.85 2186.22 2247.95 2180.3C2241.17 2173.49 2232.09 2169.68 2222.39 2169.57C2202.35 2169.34 2185.87 2185.12 2185.63 2204.74C2185.61 2205.95 2185.66 2207.16 2185.77 2208.36C2186.25 2213.55 2187.87 2218.58 2190.55 2223.08C2190.62 2223.2 2190.66 2223.33 2190.67 2223.45C2190.7 2223.78 2190.54 2224.12 2190.23 2224.3C2189.8 2224.54 2189.24 2224.4 2188.99 2223.98C2186.18 2219.25 2184.47 2213.97 2183.97 2208.52C2183.86 2207.26 2183.8 2205.99 2183.82 2204.72C2184.07 2184.11 2201.39 2167.55 2222.41 2167.8C2232.6 2167.92 2242.13 2171.92 2249.25 2179.06C2255.44 2185.28 2259.16 2193.23 2259.94 2201.77C2260.06 2203.04 2260.11 2204.32 2260.09 2205.62C2259.97 2215.6 2255.89 2224.94 2248.6 2231.91C2242.25 2237.99 2234.14 2241.63 2225.42 2242.4" fill="#91B3FA"/>
</g>
<g id="girl">
<g id="g148">
<g id="g150">
<path id="path162" d="M2269.38 1985.41C2269.38 1985.41 2273.95 1987.59 2274.79 1990.09C2275.47 1992.1 2280.52 1992.36 2281.02 1996.31C2281.28 1998.35 2282.82 1999.98 2284.89 2000.29C2290.05 2001.07 2298.01 2003.69 2299.28 2012.48C2300.25 2019.18 2296.76 2021.72 2293.11 2022.6C2290.42 2023.25 2288.63 2025.81 2289.17 2028.47C2289.7 2031.02 2288.92 2033.97 2284.41 2036.3C2274.3 2041.53 2264.21 2023.92 2264.21 2023.92L2262.14 1993.18L2269.38 1985.41" fill="url(#paint4_linear_0_1)"/>
</g>
</g>
<g id="g164">
<g id="g166">
<path id="path178" d="M2227.81 1967.16C2227.81 1967.16 2237.24 2002.99 2258.18 2015.94C2258.18 2015.94 2249.65 2026.96 2245.75 2027.3C2245.75 2027.3 2225.2 1995.46 2225.26 1971.02L2227.81 1967.16Z" fill="url(#paint5_linear_0_1)"/>
</g>
</g>
<g id="g180">
<g id="g182">
<path id="path194" d="M2310.92 2178.15L2311.57 2183.42C2311.7 2184.42 2312.5 2185.21 2313.52 2185.32C2315.24 2185.51 2318.01 2185.71 2320.71 2185.43C2321.9 2185.31 2322.67 2184.13 2322.31 2183.02C2321.65 2180.98 2320.45 2177.93 2318.71 2176.13H2312.74C2311.64 2176.13 2310.78 2177.08 2310.92 2178.15" fill="url(#paint6_linear_0_1)"/>
</g>
</g>
<g id="g196">
<g id="g198">
<path id="path210" d="M2264.21 2116.44L2263.21 2122.24C2263.21 2122.24 2266.57 2155.7 2267.17 2169.08C2267.27 2171.18 2266.72 2173.25 2265.59 2175.04L2259.73 2184.37L2274.63 2175.75L2274.92 2173.97L2272.48 2170.69L2275.68 2133.21C2275.87 2131.01 2275.4 2128.8 2274.34 2126.85L2271.26 2121.18L2264.21 2116.44" fill="url(#paint7_linear_0_1)"/>
</g>
</g>
<g id="g212">
<g id="g214">
<path id="path226" d="M2258.75 2185.72H2263.5C2264.39 2185.72 2265.23 2185.32 2265.77 2184.63C2267.26 2182.74 2270.33 2179.06 2271.79 2178.96C2273.77 2178.83 2273.52 2185.72 2273.52 2185.72H2274.63L2276.03 2177.16C2276.38 2175.01 2275.29 2172.88 2273.32 2171.87C2273.32 2171.87 2272.86 2175.14 2270.42 2176.59C2267.97 2178.04 2260.45 2183.23 2260.45 2183.23C2260.45 2183.23 2259.53 2183.1 2258.52 2183.28C2257.02 2183.54 2257.22 2185.72 2258.75 2185.72" fill="url(#paint8_linear_0_1)"/>
</g>
</g>
<g id="g228">
<g id="g230">
<path id="path242" d="M2284.61 2119.19C2284.61 2119.19 2304.36 2155.9 2307.5 2164.28C2310.64 2172.66 2311.74 2179.65 2311.78 2180.31C2311.84 2181.35 2313.16 2182.34 2316.78 2182.34C2318.64 2182.34 2319.56 2181.61 2320.01 2180.9C2320.39 2180.29 2320.41 2179.53 2320.09 2178.9C2318.94 2176.63 2315.32 2169.39 2313.98 2166.11C2312.37 2162.19 2308.93 2144.42 2307.04 2138.24C2305.15 2132.07 2303.01 2125.37 2294.77 2119.19C2294.77 2119.19 2289.12 2113.77 2284.61 2119.19" fill="url(#paint9_linear_0_1)"/>
</g>
</g>
<g id="g244">
<g id="g246">
<path id="path258" d="M2272.14 2059.05C2267.05 2037.9 2279.95 2025.94 2279.95 2025.94C2271.81 2018.28 2256.97 2014.79 2256.97 2014.79C2256.97 2014.79 2242.82 2024.93 2244.5 2032.87C2245.48 2037.52 2254.45 2060.74 2254.45 2060.74C2254.45 2060.74 2262.74 2064.58 2272.14 2059.05Z" fill="url(#paint10_linear_0_1)"/>
</g>
</g>
<g id="g260">
<g id="g262">
<path id="path274" d="M2283.43 2069.52C2281.36 2063.4 2272.14 2059.05 2272.14 2059.05C2262.74 2064.58 2254.45 2060.74 2254.45 2060.74C2254.45 2060.74 2252.59 2067.7 2253.87 2074.18C2255.15 2080.65 2263.21 2122.24 2263.21 2122.24C2275.89 2124.76 2295.4 2119.71 2295.4 2119.71C2287.32 2105.65 2285.51 2075.64 2283.43 2069.52" fill="url(#paint11_linear_0_1)"/>
</g>
</g>
<g id="g276">
<g id="g278">
<path id="path290" d="M2266.23 2000.82L2270.37 2019.04C2270.76 2020.65 2269.27 2020.39 2267.61 2020.08C2264.9 2019.58 2261.4 2018.55 2260.24 2016.48C2260.12 2016.27 2260.06 2016.03 2260.03 2015.79L2258.25 2003.15C2258.1 2002.15 2258.66 2001.18 2259.6 2000.77L2263.03 1999.27C2264.36 1998.7 2265.89 1999.44 2266.23 2000.82" fill="url(#paint12_linear_0_1)"/>
</g>
</g>
<g id="g292">
<g id="g294">
<path id="path306" d="M2261.37 1983.46C2261.37 1983.46 2256.46 1985.49 2253.13 1992.43C2249.79 1999.38 2252.28 2002.59 2255.41 2003.03C2258.54 2003.47 2263.22 2003.4 2268.17 1998.91C2273.11 1994.43 2267.74 1981.05 2261.37 1983.46" fill="url(#paint13_linear_0_1)"/>
</g>
</g>
<g id="g308">
<g id="g310">
<path id="path322" d="M2264.84 1995.21C2264.84 1995.21 2268.54 1985.04 2259.35 1984.92L2257.18 1986.41C2257.18 1986.41 2253.81 1980.77 2259.35 1978.08C2264.88 1975.39 2271.36 1977.61 2273.72 1984.92C2276.08 1992.23 2276.48 1997.13 2272.56 2000.62C2268.64 2004.12 2267.02 2000.16 2267.02 2000.16C2267.02 2000.16 2269.16 1996.88 2268.29 1995.13C2267.42 1993.38 2265.42 1995.5 2265.42 1995.5L2264.84 1995.21Z" fill="url(#paint14_linear_0_1)"/>
</g>
</g>
<g id="g324">
<g id="g326">
<path id="path338" d="M2265.87 1996.34C2265.87 1996.34 2267.74 1991.1 2270.24 1993.19C2272.73 1995.27 2268.21 1998.02 2266.44 1998.91L2265.87 1996.34Z" fill="url(#paint15_linear_0_1)"/>
</g>
</g>
<g id="g340">
<g id="g342">
<path id="path354" d="M2225.93 1973.33C2225.67 1973.93 2227.86 1975.09 2229.46 1972.7C2229.63 1971.5 2230.91 1966.41 2230.27 1965.36C2226.89 1959.74 2222.79 1959 2222.79 1959C2221.88 1960.29 2220.82 1961.35 2220.21 1962.96C2219.75 1964.17 2219.82 1965.53 2220.35 1966.73C2220.88 1967.93 2221.61 1969.5 2222.33 1970.74C2223.68 1973.09 2225.93 1973.33 2225.93 1973.33" fill="url(#paint16_linear_0_1)"/>
</g>
</g>
<g id="g356">
<g id="g358">
<path id="path370" d="M2282.24 2031.57C2282.24 2031.57 2244.36 2076.89 2216.06 2025.28C2216.06 2025.28 2215.51 2023.97 2215.85 2022.06C2216.02 2021.1 2215.38 2017.69 2215.02 2015.94C2214.9 2015.38 2215.31 2014.85 2215.89 2014.8C2216.35 2014.76 2216.79 2014.94 2217.07 2015.3L2222.24 2021.75C2222.63 2023.02 2222.01 2024.39 2220.78 2024.96C2220 2025.32 2219.75 2026.3 2220.28 2026.97C2241.8 2054.62 2277.8 2024.28 2278.46 2024.64C2280.79 2025.9 2283.49 2027.3 2282.24 2031.57" fill="url(#paint17_linear_0_1)"/>
</g>
</g>
</g>
<g id="Ladder">
<g id="g372">
<g id="g374">
<path id="path386" d="M2256.39 2325.41C2257.21 2325.41 2257.88 2324.89 2257.88 2324.26V2186.97C2257.88 2186.34 2257.21 2185.83 2256.39 2185.83C2255.57 2185.83 2254.91 2186.34 2254.91 2186.97V2324.26C2254.91 2324.89 2255.57 2325.41 2256.39 2325.41Z" fill="url(#paint18_linear_0_1)"/>
</g>
</g>
<g id="g388">
<g id="g390">
<path id="path402" d="M2296.59 2325.41C2297.41 2325.41 2298.08 2324.89 2298.08 2324.26V2186.97C2298.08 2186.34 2297.41 2185.83 2296.59 2185.83C2295.77 2185.83 2295.11 2186.34 2295.11 2186.97V2324.26C2295.11 2324.89 2295.77 2325.41 2296.59 2325.41Z" fill="url(#paint19_linear_0_1)"/>
</g>
</g>
<g id="g404">
<g id="g406">
<path id="path418" d="M2395.35 2326.28C2395.55 2326.28 2395.74 2326.25 2395.93 2326.19C2396.69 2325.94 2397.04 2325.27 2396.72 2324.68L2320.86 2186.52C2320.54 2185.94 2319.67 2185.67 2318.92 2185.92C2318.16 2186.16 2317.81 2186.84 2318.13 2187.42L2393.99 2325.58C2394.23 2326.02 2394.78 2326.28 2395.35 2326.28" fill="url(#paint20_linear_0_1)"/>
</g>
</g>
<g id="g420">
<g id="g422">
<path id="path434" d="M2348.5 2326.28C2348.69 2326.28 2348.89 2326.25 2349.08 2326.19C2349.83 2325.94 2350.18 2325.27 2349.86 2324.68L2274.01 2186.52C2273.69 2185.94 2272.82 2185.67 2272.06 2185.92C2271.31 2186.16 2270.96 2186.84 2271.28 2187.42L2347.13 2325.58C2347.37 2326.02 2347.92 2326.28 2348.5 2326.28" fill="url(#paint21_linear_0_1)"/>
</g>
</g>
<g id="g436">
<g id="g438">
<path id="path450" d="M2254.09 2188.24H2323.57C2324.73 2188.24 2325.67 2187.51 2325.67 2186.62C2325.67 2185.72 2324.73 2185 2323.57 2185H2254.09C2252.94 2185 2252 2185.72 2252 2186.62C2252 2187.51 2252.94 2188.24 2254.09 2188.24Z" fill="url(#paint22_linear_0_1)"/>
</g>
</g>
<g id="g452">
<g id="g454">
<path id="path466" d="M2284.1 2209.25H2331.1C2331.92 2209.25 2332.58 2208.73 2332.58 2208.1C2332.58 2207.46 2331.92 2206.95 2331.1 2206.95H2284.1C2283.28 2206.95 2282.62 2207.46 2282.62 2208.1C2282.62 2208.73 2283.28 2209.25 2284.1 2209.25Z" fill="url(#paint23_linear_0_1)"/>
</g>
</g>
<g id="g468">
<g id="g470">
<path id="path482" d="M2298.52 2235.38H2345.51V2233.08H2298.52V2235.38Z" fill="url(#paint24_linear_0_1)"/>
</g>
</g>
<g id="g484">
<g id="g486">
<path id="path498" d="M2312.48 2261.51H2359.47V2259.21H2312.48V2261.51Z" fill="url(#paint25_linear_0_1)"/>
</g>
</g>
<g id="g500">
<g id="g502">
<path id="path514" d="M2327.12 2287.63H2374.11C2374.93 2287.63 2375.6 2287.12 2375.6 2286.49C2375.6 2285.85 2374.93 2285.34 2374.11 2285.34H2327.12C2326.3 2285.34 2325.64 2285.85 2325.64 2286.49C2325.64 2287.12 2326.3 2287.63 2327.12 2287.63Z" fill="url(#paint26_linear_0_1)"/>
</g>
</g>
<g id="g516">
<g id="g518">
<path id="path530" d="M2341.27 2313.76H2388.27C2389.08 2313.76 2389.75 2313.25 2389.75 2312.62C2389.75 2311.98 2389.08 2311.47 2388.27 2311.47H2341.27C2340.45 2311.47 2339.79 2311.98 2339.79 2312.62C2339.79 2313.25 2340.45 2313.76 2341.27 2313.76Z" fill="url(#paint27_linear_0_1)"/>
</g>
</g>
</g>
<g id="man">
<g id="g532">
<g id="g534">
<path id="path546" d="M2072.14 2324.26C2067.46 2320.26 2057.38 2317.06 2057.38 2317.06L2051.32 2317.19C2049.78 2318.88 2049.09 2322.17 2048.79 2324.23C2049.93 2324.9 2052.07 2325.48 2055.99 2325.67C2063.25 2326.01 2069.11 2324.97 2072.14 2324.26" fill="url(#paint28_linear_0_1)"/>
</g>
</g>
<g id="g548">
<g id="g550">
<path id="path562" d="M2072.14 2324.26C2069.11 2324.97 2063.25 2326.01 2055.99 2325.67C2052.07 2325.49 2049.93 2324.9 2048.79 2324.23C2048.76 2324.39 2048.74 2324.55 2048.72 2324.7C2048.62 2325.55 2049.15 2326.34 2049.98 2326.59C2055.52 2328.25 2067.7 2327.72 2072.44 2327.43C2073.46 2327.37 2073.99 2326.2 2073.34 2325.44C2073 2325.04 2072.6 2324.64 2072.14 2324.26" fill="url(#paint29_linear_0_1)"/>
</g>
</g>
<g id="g564">
<g id="g566">
<path id="path578" d="M2054.16 2312.06L2051.82 2316.78C2051.82 2317.69 2052.46 2318.47 2053.37 2318.67C2054.31 2318.86 2055.55 2318.99 2056.76 2318.7C2057.52 2318.51 2058.07 2317.88 2058.17 2317.12L2061.12 2312.06H2054.16" fill="url(#paint30_linear_0_1)"/>
</g>
</g>
<g id="g580">
<g id="g582">
<path id="path594" d="M1953.99 2312.93C1952.22 2309.09 1952.73 2307.35 1949.23 2307.74C1948.81 2307.78 1948.46 2307.86 1948.17 2307.97C1947.95 2308.6 1947.94 2309.3 1948.17 2309.97C1949.06 2312.46 1949.73 2317.29 1953.11 2321.48C1953.83 2322.36 1954.92 2322.87 1956.06 2322.89L1959.91 2322.95C1956.26 2320.09 1955.45 2316.13 1953.99 2312.93" fill="url(#paint31_linear_0_1)"/>
</g>
</g>
<g id="g596">
<g id="g598">
<path id="path610" d="M1960.16 2317.24C1957.2 2315.2 1957.27 2306.3 1957.27 2306.3L1952.71 2304.03L1949.28 2306.47C1948.75 2306.85 1948.37 2307.38 1948.17 2307.97C1948.46 2307.86 1948.81 2307.78 1949.23 2307.74C1952.73 2307.35 1952.22 2309.09 1953.99 2312.93C1955.45 2316.13 1956.26 2320.09 1959.91 2322.95L1962.56 2322.99C1963.75 2323.01 1964.43 2321.68 1963.71 2320.75C1962.81 2319.59 1961.57 2318.22 1960.16 2317.24" fill="url(#paint32_linear_0_1)"/>
</g>
</g>
<g id="g612">
<g id="g614">
<path id="path626" d="M1957.3 2299.84L1952.2 2304.03C1951.85 2304.56 1951.97 2305.26 1952.48 2305.65C1953.36 2306.33 1954.89 2307.09 1956.76 2306.3L1962.35 2303.33L1957.3 2299.84" fill="url(#paint33_linear_0_1)"/>
</g>
</g>
<g id="g628">
<g id="g630">
<path id="path642" d="M1953.92 2301.9L1958.1 2304.96C1958.71 2305.51 1960.22 2305.57 1960.9 2305.09C1967.83 2300.2 2033.56 2270.59 2046.59 2265.96L2036.64 2245.51C2036.64 2245.51 1952.16 2300.32 1953.92 2301.9" fill="url(#paint34_linear_0_1)"/>
</g>
</g>
<g id="g644">
<g id="g646">
<path id="path658" d="M2087.44 2262.17C2079.68 2258.1 2058.09 2254.57 2058.09 2254.57L2032.97 2247.91C2032.97 2247.91 2026.08 2268.06 2038.16 2271.7C2050.25 2275.34 2067.71 2273.62 2075.03 2272.67C2075.03 2272.67 2065.25 2279.56 2053.53 2312.94C2053.53 2312.94 2057.47 2313.02 2060.68 2313.75C2060.68 2313.75 2086.84 2281.85 2089.58 2273.62C2091.39 2268.19 2093.92 2265.58 2087.44 2262.17Z" fill="url(#paint35_linear_0_1)"/>
</g>
</g>
<g id="g660">
<g id="g662">
<path id="path674" d="M2102.47 2195.7C2097.04 2195.32 2080.53 2198.84 2080.53 2198.84L2089.01 2205.67C2089.01 2205.67 2095.69 2204.08 2100.14 2203.23C2100.14 2203.23 2111.13 2196.3 2102.47 2195.7" fill="url(#paint36_linear_0_1)"/>
</g>
</g>
<g id="g676">
<g id="g678">
<path id="path690" d="M2121.87 2200.53C2121.87 2200.53 2114.59 2207.16 2110.17 2208.96C2105.75 2210.75 2103.16 2212.71 2100.42 2207.92C2097.68 2203.12 2098.74 2197.92 2102.4 2194.04C2102.4 2194.04 2108.01 2188 2111.14 2187.84C2114.27 2187.69 2121.87 2200.53 2121.87 2200.53Z" fill="url(#paint37_linear_0_1)"/>
</g>
</g>
<g id="g692">
<g id="g694">
<path id="path706" d="M2106.25 2194.67L2106.48 2195.32C2106.48 2195.32 2111.1 2190.74 2112.92 2192.74C2114.74 2194.74 2119.99 2203.35 2124.06 2204.19C2127.98 2205 2131.54 2201.85 2131.79 2198.87C2131.81 2198.68 2131.66 2198.52 2131.47 2198.49L2130.98 2198.42C2130.65 2198.37 2130.54 2197.95 2130.82 2197.76C2131.08 2197.58 2131.01 2197.17 2130.69 2197.1C2129.47 2196.83 2127.25 2195.74 2124.82 2191.58C2121.37 2185.69 2117.27 2182.41 2112.79 2183.84C2112.5 2183.93 2112.24 2183.69 2112.3 2183.4C2112.42 2182.84 2112.29 2182.05 2111.08 2181.35C2108.98 2180.13 2105.38 2182.16 2103.57 2187.05C2103.48 2187.28 2103.19 2187.38 2102.99 2187.23C2102.29 2186.7 2100.83 2186.04 2100.34 2189.2C2099.83 2192.43 2100.57 2193.98 2100.94 2194.54C2101.04 2194.69 2101.23 2194.74 2101.4 2194.67L2105.26 2193.08C2105.46 2193 2105.69 2193.1 2105.76 2193.3L2106.25 2194.67Z" fill="url(#paint38_linear_0_1)"/>
</g>
</g>
<g id="g708">
<g id="g710">
<path id="path722" d="M2105.48 2195.12C2105.48 2195.12 2110.47 2191.83 2108.07 2189.95C2105.67 2188.06 2102.37 2193.32 2102.86 2195.32L2105.48 2195.12" fill="url(#paint39_linear_0_1)"/>
</g>
</g>
<g id="g724">
<g id="g726">
<path id="path738" d="M2150.92 2216.04C2150.92 2216.04 2155.01 2217.47 2155.77 2215.08C2156.53 2212.69 2154.41 2206.33 2155.75 2205.45C2157.09 2204.57 2159.41 2200.17 2158.68 2198.17L2157 2199.73C2157 2199.73 2158.14 2196.04 2156.89 2194.47L2153.71 2202.48C2153.71 2202.48 2149.5 2212 2150.92 2216.04" fill="url(#paint40_linear_0_1)"/>
</g>
</g>
<g id="g740">
<g id="g742">
<path id="path754" d="M2076.9 2200.15C2076.9 2200.15 2084.2 2192.25 2100.16 2204.57C2111.16 2213.06 2150.8 2211.34 2150.8 2211.34C2150.8 2211.34 2150.78 2213.54 2151.55 2216.2C2151.55 2216.2 2118.29 2225.01 2093.33 2219.02C2093.33 2219.02 2065.74 2249.67 2063.61 2255.67C2063.61 2255.67 2045.69 2258.3 2032.97 2247.91C2032.97 2247.91 2036.38 2237.54 2047.42 2225.53C2061.76 2209.93 2076.9 2200.15 2076.9 2200.15" fill="url(#paint41_linear_0_1)"/>
</g>
</g>
<g id="g756">
<g id="g758">
<path id="path770" d="M2080.74 2215.94C2080.6 2215.89 2080.53 2215.75 2080.57 2215.61C2080.61 2215.47 2080.76 2215.38 2080.91 2215.42C2081 2215.45 2090.4 2218.04 2091.89 2218.4C2092.03 2218.43 2092.12 2218.58 2092.09 2218.72C2092.05 2218.87 2091.9 2218.96 2091.75 2218.92C2090.26 2218.56 2080.85 2215.97 2080.76 2215.94C2080.75 2215.94 2080.74 2215.94 2080.74 2215.94" fill="url(#paint42_linear_0_1)"/>
</g>
</g>
</g>
</g>
<defs>
<linearGradient id="paint0_linear_0_1" x1="2021.18" y1="2055.73" x2="2083.09" y2="2474.4" gradientUnits="userSpaceOnUse">
<stop stop-color="#4F52FF"/>
<stop offset="1" stop-color="#4042E2"/>
</linearGradient>
<linearGradient id="paint1_linear_0_1" x1="2294.22" y1="1964.34" x2="2069.4" y2="2013.08" gradientUnits="userSpaceOnUse">
<stop stop-color="#4F52FF"/>
<stop offset="1" stop-color="#4042E2"/>
</linearGradient>
<linearGradient id="paint2_linear_0_1" x1="2144.61" y1="1909" x2="2027.15" y2="2018.62" gradientUnits="userSpaceOnUse">
<stop stop-color="#4F52FF"/>
<stop offset="1" stop-color="#4042E2"/>
</linearGradient>
<linearGradient id="paint3_linear_0_1" x1="2144.96" y1="2248.99" x2="2290.78" y2="2162.81" gradientUnits="userSpaceOnUse">
<stop stop-color="#4F52FF"/>
<stop offset="1" stop-color="#4042E2"/>
</linearGradient>
<linearGradient id="paint4_linear_0_1" x1="2261.34" y1="1967.48" x2="2274.43" y2="2000.99" gradientUnits="userSpaceOnUse">
<stop stop-color="#09005D"/>
<stop offset="1" stop-color="#1A0F91"/>
</linearGradient>
<linearGradient id="paint5_linear_0_1" x1="2237.54" y1="1985.73" x2="2256.11" y2="2043.96" gradientUnits="userSpaceOnUse">
<stop stop-color="#FEBBBA"/>
<stop offset="1" stop-color="#FF928E"/>
</linearGradient>
<linearGradient id="paint6_linear_0_1" x1="2316.36" y1="2174.95" x2="2314.5" y2="2135.98" gradientUnits="userSpaceOnUse">
<stop stop-color="#09005D"/>
<stop offset="1" stop-color="#1A0F91"/>
</linearGradient>
<linearGradient id="paint7_linear_0_1" x1="2262.33" y1="2225.28" x2="2278.22" y2="2035.74" gradientUnits="userSpaceOnUse">
<stop stop-color="#FEBBBA"/>
<stop offset="1" stop-color="#FF928E"/>
</linearGradient>
<linearGradient id="paint8_linear_0_1" x1="2267.21" y1="2177.76" x2="2272.18" y2="2142.89" gradientUnits="userSpaceOnUse">
<stop stop-color="#09005D"/>
<stop offset="1" stop-color="#1A0F91"/>
</linearGradient>
<linearGradient id="paint9_linear_0_1" x1="2295.61" y1="2228.1" x2="2311.5" y2="2038.51" gradientUnits="userSpaceOnUse">
<stop stop-color="#FEBBBA"/>
<stop offset="1" stop-color="#FF928E"/>
</linearGradient>
<linearGradient id="paint10_linear_0_1" x1="2375.1" y1="1958.68" x2="2310.55" y2="2006.26" gradientUnits="userSpaceOnUse">
<stop stop-color="#FF928E"/>
<stop offset="1" stop-color="#FE7062"/>
</linearGradient>
<linearGradient id="paint11_linear_0_1" x1="2287.89" y1="2050.89" x2="2242.43" y2="2194.49" gradientUnits="userSpaceOnUse">
<stop stop-color="#09005D"/>
<stop offset="1" stop-color="#1A0F91"/>
</linearGradient>
<linearGradient id="paint12_linear_0_1" x1="2260.87" y1="2030.05" x2="2266.77" y2="1996.42" gradientUnits="userSpaceOnUse">
<stop stop-color="#FEBBBA"/>
<stop offset="1" stop-color="#FF928E"/>
</linearGradient>
<linearGradient id="paint13_linear_0_1" x1="2252.67" y1="2009.78" x2="2278.96" y2="1962.03" gradientUnits="userSpaceOnUse">
<stop stop-color="#FEBBBA"/>
<stop offset="1" stop-color="#FF928E"/>
</linearGradient>
<linearGradient id="paint14_linear_0_1" x1="2258.5" y1="1968.59" x2="2271.59" y2="2002.1" gradientUnits="userSpaceOnUse">
<stop stop-color="#09005D"/>
<stop offset="1" stop-color="#1A0F91"/>
</linearGradient>
<linearGradient id="paint15_linear_0_1" x1="2258.44" y1="2012.95" x2="2284.73" y2="1965.21" gradientUnits="userSpaceOnUse">
<stop stop-color="#FEBBBA"/>
<stop offset="1" stop-color="#FF928E"/>
</linearGradient>
<linearGradient id="paint16_linear_0_1" x1="2231.02" y1="1983.24" x2="2243.85" y2="2023.45" gradientUnits="userSpaceOnUse">
<stop stop-color="#FEBBBA"/>
<stop offset="1" stop-color="#FF928E"/>
</linearGradient>
<linearGradient id="paint17_linear_0_1" x1="2254.14" y1="2012.73" x2="2237.1" y2="2047.52" gradientUnits="userSpaceOnUse">
<stop stop-color="#FEBBBA"/>
<stop offset="1" stop-color="#FF928E"/>
</linearGradient>
<linearGradient id="paint18_linear_0_1" x1="2419.78" y1="2076.77" x2="2352.94" y2="2152.96" gradientUnits="userSpaceOnUse">
<stop stop-color="#09005D"/>
<stop offset="1" stop-color="#1A0F91"/>
</linearGradient>
<linearGradient id="paint19_linear_0_1" x1="2442.09" y1="2096.35" x2="2375.25" y2="2172.54" gradientUnits="userSpaceOnUse">
<stop stop-color="#09005D"/>
<stop offset="1" stop-color="#1A0F91"/>
</linearGradient>
<linearGradient id="paint20_linear_0_1" x1="2476.08" y1="2126.17" x2="2409.24" y2="2202.36" gradientUnits="userSpaceOnUse">
<stop stop-color="#09005D"/>
<stop offset="1" stop-color="#1A0F91"/>
</linearGradient>
<linearGradient id="paint21_linear_0_1" x1="2450.07" y1="2103.35" x2="2383.23" y2="2179.54" gradientUnits="userSpaceOnUse">
<stop stop-color="#09005D"/>
<stop offset="1" stop-color="#1A0F91"/>
</linearGradient>
<linearGradient id="paint22_linear_0_1" x1="2402.8" y1="2061.87" x2="2335.95" y2="2138.06" gradientUnits="userSpaceOnUse">
<stop stop-color="#09005D"/>
<stop offset="1" stop-color="#1A0F91"/>
</linearGradient>
<linearGradient id="paint23_linear_0_1" x1="2424.11" y1="2080.57" x2="2357.27" y2="2156.76" gradientUnits="userSpaceOnUse">
<stop stop-color="#09005D"/>
<stop offset="1" stop-color="#1A0F91"/>
</linearGradient>
<linearGradient id="paint24_linear_0_1" x1="2445.36" y1="2099.21" x2="2378.52" y2="2175.4" gradientUnits="userSpaceOnUse">
<stop stop-color="#09005D"/>
<stop offset="1" stop-color="#1A0F91"/>
</linearGradient>
<linearGradient id="paint25_linear_0_1" x1="2466.36" y1="2117.64" x2="2399.52" y2="2193.83" gradientUnits="userSpaceOnUse">
<stop stop-color="#09005D"/>
<stop offset="1" stop-color="#1A0F91"/>
</linearGradient>
<linearGradient id="paint26_linear_0_1" x1="2487.74" y1="2136.39" x2="2420.89" y2="2212.58" gradientUnits="userSpaceOnUse">
<stop stop-color="#09005D"/>
<stop offset="1" stop-color="#1A0F91"/>
</linearGradient>
<linearGradient id="paint27_linear_0_1" x1="2508.85" y1="2154.91" x2="2442" y2="2231.1" gradientUnits="userSpaceOnUse">
<stop stop-color="#09005D"/>
<stop offset="1" stop-color="#1A0F91"/>
</linearGradient>
<linearGradient id="paint28_linear_0_1" x1="2064.16" y1="2279.8" x2="2062.53" y2="2300.24" gradientUnits="userSpaceOnUse">
<stop stop-color="#09005D"/>
<stop offset="1" stop-color="#1A0F91"/>
</linearGradient>
<linearGradient id="paint29_linear_0_1" x1="2061.14" y1="2328.97" x2="2061.37" y2="2297.84" gradientUnits="userSpaceOnUse">
<stop stop-color="#09005D"/>
<stop offset="1" stop-color="#1A0F91"/>
</linearGradient>
<linearGradient id="paint30_linear_0_1" x1="2051.82" y1="2315.46" x2="2061.12" y2="2315.46" gradientUnits="userSpaceOnUse">
<stop stop-color="#FEBBBA"/>
<stop offset="1" stop-color="#FF928E"/>
</linearGradient>
<linearGradient id="paint31_linear_0_1" x1="1950.96" y1="2320.26" x2="1969.8" y2="2289.73" gradientUnits="userSpaceOnUse">
<stop stop-color="#09005D"/>
<stop offset="1" stop-color="#1A0F91"/>
</linearGradient>
<linearGradient id="paint32_linear_0_1" x1="1973.72" y1="2296.6" x2="1961.14" y2="2310.16" gradientUnits="userSpaceOnUse">
<stop stop-color="#09005D"/>
<stop offset="1" stop-color="#1A0F91"/>
</linearGradient>
<linearGradient id="paint33_linear_0_1" x1="1952" y1="2303.24" x2="1962.35" y2="2303.24" gradientUnits="userSpaceOnUse">
<stop stop-color="#FEBBBA"/>
<stop offset="1" stop-color="#FF928E"/>
</linearGradient>
<linearGradient id="paint34_linear_0_1" x1="2036.56" y1="2252.2" x2="1963.31" y2="2318.5" gradientUnits="userSpaceOnUse">
<stop stop-color="#09005D"/>
<stop offset="1" stop-color="#1A0F91"/>
</linearGradient>
<linearGradient id="paint35_linear_0_1" x1="2103.85" y1="2335.39" x2="2061.42" y2="2270.44" gradientUnits="userSpaceOnUse">
<stop stop-color="#09005D"/>
<stop offset="1" stop-color="#1A0F91"/>
</linearGradient>
<linearGradient id="paint36_linear_0_1" x1="2121.05" y1="2180.78" x2="2085.94" y2="2204.89" gradientUnits="userSpaceOnUse">
<stop stop-color="#FEBBBA"/>
<stop offset="1" stop-color="#FF928E"/>
</linearGradient>
<linearGradient id="paint37_linear_0_1" x1="2111.12" y1="2211.05" x2="2108.95" y2="2182.53" gradientUnits="userSpaceOnUse">
<stop stop-color="#FEBBBA"/>
<stop offset="1" stop-color="#FF928E"/>
</linearGradient>
<linearGradient id="paint38_linear_0_1" x1="2122.23" y1="2184.74" x2="2104.61" y2="2212.62" gradientUnits="userSpaceOnUse">
<stop stop-color="#09005D"/>
<stop offset="1" stop-color="#1A0F91"/>
</linearGradient>
<linearGradient id="paint39_linear_0_1" x1="2107.22" y1="2211.34" x2="2105.05" y2="2182.82" gradientUnits="userSpaceOnUse">
<stop stop-color="#FEBBBA"/>
<stop offset="1" stop-color="#FF928E"/>
</linearGradient>
<linearGradient id="paint40_linear_0_1" x1="2149.93" y1="2215.47" x2="2160.76" y2="2196.71" gradientUnits="userSpaceOnUse">
<stop stop-color="#FEBBBA"/>
<stop offset="1" stop-color="#FF928E"/>
</linearGradient>
<linearGradient id="paint41_linear_0_1" x1="2092.88" y1="2275.54" x2="2091.95" y2="2207.42" gradientUnits="userSpaceOnUse">
<stop stop-color="#FF928E"/>
<stop offset="1" stop-color="#FE7062"/>
</linearGradient>
<linearGradient id="paint42_linear_0_1" x1="2130.13" y1="2138.54" x2="2071.38" y2="2248.37" gradientUnits="userSpaceOnUse">
<stop stop-color="#E1473D"/>
<stop offset="1" stop-color="#E9605A"/>
</linearGradient>
</defs>
</svg>
